G04 #@! TF.GenerationSoftware,KiCad,Pcbnew,8.0.1*
G04 #@! TF.CreationDate,2024-05-29T20:25:03-07:00*
G04 #@! TF.ProjectId,8-Bit-Computer,382d4269-742d-4436-9f6d-70757465722e,rev?*
G04 #@! TF.SameCoordinates,Original*
G04 #@! TF.FileFunction,Paste,Bot*
G04 #@! TF.FilePolarity,Positive*
%FSLAX46Y46*%
G04 Gerber Fmt 4.6, Leading zero omitted, Abs format (unit mm)*
G04 Created by KiCad (PCBNEW 8.0.1) date 2024-05-29 20:25:03*
%MOMM*%
%LPD*%
G01*
G04 APERTURE LIST*
G04 Aperture macros list*
%AMRoundRect*
0 Rectangle with rounded corners*
0 $1 Rounding radius*
0 $2 $3 $4 $5 $6 $7 $8 $9 X,Y pos of 4 corners*
0 Add a 4 corners polygon primitive as box body*
4,1,4,$2,$3,$4,$5,$6,$7,$8,$9,$2,$3,0*
0 Add four circle primitives for the rounded corners*
1,1,$1+$1,$2,$3*
1,1,$1+$1,$4,$5*
1,1,$1+$1,$6,$7*
1,1,$1+$1,$8,$9*
0 Add four rect primitives between the rounded corners*
20,1,$1+$1,$2,$3,$4,$5,0*
20,1,$1+$1,$4,$5,$6,$7,0*
20,1,$1+$1,$6,$7,$8,$9,0*
20,1,$1+$1,$8,$9,$2,$3,0*%
G04 Aperture macros list end*
%ADD10RoundRect,0.140000X0.140000X0.170000X-0.140000X0.170000X-0.140000X-0.170000X0.140000X-0.170000X0*%
%ADD11RoundRect,0.135000X-0.185000X0.135000X-0.185000X-0.135000X0.185000X-0.135000X0.185000X0.135000X0*%
%ADD12RoundRect,0.150000X0.825000X0.150000X-0.825000X0.150000X-0.825000X-0.150000X0.825000X-0.150000X0*%
%ADD13RoundRect,0.150000X0.875000X0.150000X-0.875000X0.150000X-0.875000X-0.150000X0.875000X-0.150000X0*%
%ADD14RoundRect,0.135000X0.135000X0.185000X-0.135000X0.185000X-0.135000X-0.185000X0.135000X-0.185000X0*%
%ADD15RoundRect,0.150000X-0.825000X-0.150000X0.825000X-0.150000X0.825000X0.150000X-0.825000X0.150000X0*%
%ADD16RoundRect,0.100000X0.637500X0.100000X-0.637500X0.100000X-0.637500X-0.100000X0.637500X-0.100000X0*%
%ADD17RoundRect,0.150000X-0.150000X0.825000X-0.150000X-0.825000X0.150000X-0.825000X0.150000X0.825000X0*%
%ADD18RoundRect,0.135000X-0.135000X-0.185000X0.135000X-0.185000X0.135000X0.185000X-0.135000X0.185000X0*%
%ADD19RoundRect,0.150000X-0.150000X0.675000X-0.150000X-0.675000X0.150000X-0.675000X0.150000X0.675000X0*%
%ADD20RoundRect,0.140000X-0.170000X0.140000X-0.170000X-0.140000X0.170000X-0.140000X0.170000X0.140000X0*%
%ADD21RoundRect,0.140000X-0.140000X-0.170000X0.140000X-0.170000X0.140000X0.170000X-0.140000X0.170000X0*%
%ADD22RoundRect,0.140000X0.170000X-0.140000X0.170000X0.140000X-0.170000X0.140000X-0.170000X-0.140000X0*%
G04 APERTURE END LIST*
D10*
X155020000Y-123500001D03*
X154060000Y-123500001D03*
X51695000Y-124420000D03*
X50735000Y-124420000D03*
D11*
X85000000Y-108925934D03*
X85000000Y-109945934D03*
D12*
X157500000Y-73750000D03*
X157500000Y-75020000D03*
X157500000Y-76290000D03*
X157500000Y-77560000D03*
X157500000Y-78830000D03*
X157500000Y-80100000D03*
X157500000Y-81370000D03*
X157500000Y-82640000D03*
X152550000Y-82640000D03*
X152550000Y-81370000D03*
X152550000Y-80100000D03*
X152550000Y-78830000D03*
X152550000Y-77560000D03*
X152550000Y-76290000D03*
X152550000Y-75020000D03*
X152550000Y-73750000D03*
D11*
X83865000Y-108925934D03*
X83865000Y-109945934D03*
D12*
X56950000Y-55960000D03*
X56950000Y-57230000D03*
X56950000Y-58500000D03*
X56950000Y-59770000D03*
X56950000Y-61040000D03*
X56950000Y-62310000D03*
X56950000Y-63580000D03*
X52000000Y-63580000D03*
X52000000Y-62310000D03*
X52000000Y-61040000D03*
X52000000Y-59770000D03*
X52000000Y-58500000D03*
X52000000Y-57230000D03*
X52000000Y-55960000D03*
D11*
X73365000Y-109425934D03*
X73365000Y-110445934D03*
D13*
X128190000Y-121285001D03*
X128190000Y-122555001D03*
X128190000Y-123825001D03*
X128190000Y-125095001D03*
X128190000Y-126365001D03*
X128190000Y-127635001D03*
X128190000Y-128905001D03*
X128190000Y-130175001D03*
X128190000Y-131445001D03*
X128190000Y-132715001D03*
X118890000Y-132715001D03*
X118890000Y-131445001D03*
X118890000Y-130175001D03*
X118890000Y-128905001D03*
X118890000Y-127635001D03*
X118890000Y-126365001D03*
X118890000Y-125095001D03*
X118890000Y-123825001D03*
X118890000Y-122555001D03*
X118890000Y-121285001D03*
D10*
X56715000Y-131920000D03*
X55755000Y-131920000D03*
D14*
X53725000Y-133420000D03*
X52705000Y-133420000D03*
D11*
X72000000Y-109425934D03*
X72000000Y-110445934D03*
D10*
X143040000Y-124000001D03*
X142080000Y-124000001D03*
D15*
X133165000Y-79460000D03*
X133165000Y-78190000D03*
X133165000Y-76920000D03*
X133165000Y-75650000D03*
X133165000Y-74380000D03*
X133165000Y-73110000D03*
X133165000Y-71840000D03*
X138115000Y-71840000D03*
X138115000Y-73110000D03*
X138115000Y-74380000D03*
X138115000Y-75650000D03*
X138115000Y-76920000D03*
X138115000Y-78190000D03*
X138115000Y-79460000D03*
D11*
X78000000Y-108925934D03*
X78000000Y-109945934D03*
D16*
X136540000Y-155000001D03*
X136540000Y-155650001D03*
X136540000Y-156300001D03*
X136540000Y-156950001D03*
X136540000Y-157600001D03*
X136540000Y-158250001D03*
X136540000Y-158900001D03*
X136540000Y-159550001D03*
X136540000Y-160200001D03*
X136540000Y-160850001D03*
X130815000Y-160850001D03*
X130815000Y-160200001D03*
X130815000Y-159550001D03*
X130815000Y-158900001D03*
X130815000Y-158250001D03*
X130815000Y-157600001D03*
X130815000Y-156950001D03*
X130815000Y-156300001D03*
X130815000Y-155650001D03*
X130815000Y-155000001D03*
D11*
X74865000Y-109425934D03*
X74865000Y-110445934D03*
D17*
X70690000Y-67025000D03*
X71960000Y-67025000D03*
X73230000Y-67025000D03*
X74500000Y-67025000D03*
X75770000Y-67025000D03*
X77040000Y-67025000D03*
X78310000Y-67025000D03*
X78310000Y-71975000D03*
X77040000Y-71975000D03*
X75770000Y-71975000D03*
X74500000Y-71975000D03*
X73230000Y-71975000D03*
X71960000Y-71975000D03*
X70690000Y-71975000D03*
D18*
X169750000Y-85500000D03*
X170770000Y-85500000D03*
D19*
X50310000Y-126295000D03*
X51580000Y-126295000D03*
X52850000Y-126295000D03*
X54120000Y-126295000D03*
X54120000Y-131545000D03*
X52850000Y-131545000D03*
X51580000Y-131545000D03*
X50310000Y-131545000D03*
D10*
X94980000Y-61500000D03*
X94020000Y-61500000D03*
D20*
X145500000Y-62020000D03*
X145500000Y-62980000D03*
D12*
X138115000Y-82840000D03*
X138115000Y-84110000D03*
X138115000Y-85380000D03*
X138115000Y-86650000D03*
X138115000Y-87920000D03*
X138115000Y-89190000D03*
X138115000Y-90460000D03*
X133165000Y-90460000D03*
X133165000Y-89190000D03*
X133165000Y-87920000D03*
X133165000Y-86650000D03*
X133165000Y-85380000D03*
X133165000Y-84110000D03*
X133165000Y-82840000D03*
D10*
X59500000Y-53000000D03*
X58540000Y-53000000D03*
D11*
X70500000Y-109425934D03*
X70500000Y-110445934D03*
D17*
X59920000Y-99960934D03*
X61190000Y-99960934D03*
X62460000Y-99960934D03*
X63730000Y-99960934D03*
X65000000Y-99960934D03*
X66270000Y-99960934D03*
X67540000Y-99960934D03*
X68810000Y-99960934D03*
X68810000Y-104910934D03*
X67540000Y-104910934D03*
X66270000Y-104910934D03*
X65000000Y-104910934D03*
X63730000Y-104910934D03*
X62460000Y-104910934D03*
X61190000Y-104910934D03*
X59920000Y-104910934D03*
D10*
X129157500Y-154925001D03*
X128197500Y-154925001D03*
D11*
X88000000Y-108925934D03*
X88000000Y-109945934D03*
D16*
X83259968Y-123470000D03*
X83259968Y-124120000D03*
X83259968Y-124770000D03*
X83259968Y-125420000D03*
X83259968Y-126070000D03*
X83259968Y-126720000D03*
X83259968Y-127370000D03*
X83259968Y-128020000D03*
X83259968Y-128670000D03*
X83259968Y-129320000D03*
X77534968Y-129320000D03*
X77534968Y-128670000D03*
X77534968Y-128020000D03*
X77534968Y-127370000D03*
X77534968Y-126720000D03*
X77534968Y-126070000D03*
X77534968Y-125420000D03*
X77534968Y-124770000D03*
X77534968Y-124120000D03*
X77534968Y-123470000D03*
D12*
X156277684Y-86340000D03*
X156277684Y-87610000D03*
X156277684Y-88880000D03*
X156277684Y-90150000D03*
X156277684Y-91420000D03*
X156277684Y-92690000D03*
X156277684Y-93960000D03*
X151327684Y-93960000D03*
X151327684Y-92690000D03*
X151327684Y-91420000D03*
X151327684Y-90150000D03*
X151327684Y-88880000D03*
X151327684Y-87610000D03*
X151327684Y-86340000D03*
D11*
X81000000Y-108925934D03*
X81000000Y-109945934D03*
D10*
X48695000Y-131420000D03*
X47735000Y-131420000D03*
D21*
X119560000Y-119500001D03*
X120520000Y-119500001D03*
D14*
X51725000Y-133420000D03*
X50705000Y-133420000D03*
D10*
X75715000Y-124420000D03*
X74755000Y-124420000D03*
D11*
X82365000Y-108925934D03*
X82365000Y-109945934D03*
D22*
X58020000Y-105460000D03*
X58020000Y-104500000D03*
D14*
X65160000Y-114935934D03*
X64140000Y-114935934D03*
D12*
X157277684Y-62205000D03*
X157277684Y-63475000D03*
X157277684Y-64745000D03*
X157277684Y-66015000D03*
X157277684Y-67285000D03*
X157277684Y-68555000D03*
X157277684Y-69825000D03*
X157277684Y-71095000D03*
X152327684Y-71095000D03*
X152327684Y-69825000D03*
X152327684Y-68555000D03*
X152327684Y-67285000D03*
X152327684Y-66015000D03*
X152327684Y-64745000D03*
X152327684Y-63475000D03*
X152327684Y-62205000D03*
D11*
X86500000Y-108925934D03*
X86500000Y-109945934D03*
D20*
X64000000Y-76020000D03*
X64000000Y-76980000D03*
D10*
X68480000Y-72000000D03*
X67520000Y-72000000D03*
D17*
X130150000Y-49050000D03*
X131420000Y-49050000D03*
X132690000Y-49050000D03*
X133960000Y-49050000D03*
X135230000Y-49050000D03*
X136500000Y-49050000D03*
X137770000Y-49050000D03*
X139040000Y-49050000D03*
X139040000Y-54000000D03*
X137770000Y-54000000D03*
X136500000Y-54000000D03*
X135230000Y-54000000D03*
X133960000Y-54000000D03*
X132690000Y-54000000D03*
X131420000Y-54000000D03*
X130150000Y-54000000D03*
D11*
X79500000Y-108925934D03*
X79500000Y-109945934D03*
M02*
