M48
; DRILL file {KiCad 8.0.1} date 2024-05-29T20:25:24-0700
; FORMAT={-:-/ absolute / metric / decimal}
; #@! TF.CreationDate,2024-05-29T20:25:24-07:00
; #@! TF.GenerationSoftware,Kicad,Pcbnew,8.0.1
; #@! TF.FileFunction,Plated,1,4,PTH
FMAT,2
METRIC
; #@! TA.AperFunction,Plated,PTH,ViaDrill
T1C0.300
; #@! TA.AperFunction,Plated,PTH,ViaDrill
T2C0.400
; #@! TA.AperFunction,Plated,PTH,ComponentDrill
T3C0.800
; #@! TA.AperFunction,Plated,PTH,ComponentDrill
T4C0.900
; #@! TA.AperFunction,Plated,PTH,ComponentDrill
T5C1.000
; #@! TA.AperFunction,Plated,PTH,ComponentDrill
T6C1.100
%
G90
G05
T1
X31.0Y-95.5
X31.658Y-53.88
X31.875Y-68.365
X33.0Y-61.0
X33.926Y-85.423
X34.0Y-65.5
X34.0Y-83.0
X34.214Y-58.865
X34.714Y-53.865
X35.0Y-82.0
X35.0Y-107.5
X36.437Y-82.862
X38.0Y-80.5
X39.5Y-86.0
X40.261Y-81.103
X40.5Y-68.5
X40.714Y-58.865
X41.0Y-65.77
X41.5Y-52.5
X42.5Y-108.0
X42.8Y-100.347
X43.0Y-59.5
X43.0Y-90.5
X44.5Y-82.5
X45.0Y-61.5
X45.5Y-89.0
X46.0Y-117.0
X47.325Y-86.927
X48.8Y-90.347
X51.09Y-101.072
X53.5Y-60.5
X53.5Y-88.711
X53.612Y-57.522
X53.624Y-62.506
X54.5Y-58.5
X54.5Y-90.0
X55.325Y-63.441
X55.5Y-60.0
X57.5Y-53.5
X58.5Y-61.0
X58.5Y-64.5
X58.5Y-92.579
X64.5Y-77.561
X68.0Y-70.95
X69.287Y-92.914
X70.052Y-93.714
X71.0Y-94.736
X72.5Y-95.586
X73.8Y-96.639
X74.7Y-42.0
X74.793Y-38.793
X75.5Y-39.5
X75.5Y-44.0
X76.5Y-40.5
X76.5Y-45.5
X76.5Y-97.439
X77.5Y-46.5
X79.7Y-67.5
X80.0Y-71.5
X81.0Y-40.5
X84.0Y-52.35
X84.5Y-59.5
X84.64Y-71.636
X85.5Y-39.5
X85.5Y-60.0
X86.954Y-71.399
X87.0Y-61.0
X87.403Y-74.314
X88.5Y-39.0
X88.5Y-61.5
X90.0Y-46.5
X90.0Y-49.5
X91.316Y-72.34
X92.0Y-46.0
X92.0Y-52.0
X92.5Y-68.2
X92.5Y-77.411
X93.5Y-87.0
X93.98Y-46.5
X94.0Y-51.0
X94.0Y-64.5
X95.97Y-45.5
X96.0Y-50.0
X96.0Y-61.6
X99.0Y-48.5
X99.0Y-61.2
X99.978Y-60.991
X100.151Y-46.217
X101.0Y-45.3
X101.0Y-60.0
X102.0Y-44.5
X102.0Y-59.5
X104.0Y-49.0
X104.65Y-69.5
X105.5Y-65.45
X105.5Y-73.8
X107.15Y-96.15
X109.0Y-73.0
X110.0Y-50.0
X110.0Y-70.09
X111.0Y-51.0
X111.0Y-73.0
X111.0Y-75.5
X115.0Y-52.0
X115.0Y-71.0
X115.0Y-74.0
X117.5Y-68.49
X117.5Y-77.0
X125.5Y-47.5
X125.5Y-99.5
X129.0Y-57.5
X129.866Y-47.7
X131.5Y-46.7
X132.229Y-55.279
X132.554Y-46.2
X133.5Y-55.5
X134.162Y-45.7
X134.769Y-55.279
X135.145Y-46.0
X136.03Y-55.5
X136.665Y-46.5
X137.5Y-50.5
X137.5Y-62.0
X138.509Y-55.53
X140.082Y-49.735
X142.065Y-57.47
X148.638Y-54.8
X149.871Y-88.423
X159.0Y-64.745
X164.5Y-55.5
X165.0Y-94.0
X165.5Y-61.0
X165.5Y-71.0
X166.0Y-63.2
X166.5Y-57.0
X168.0Y-63.5
X168.0Y-103.0
X168.5Y-59.0
X169.5Y-62.0
T2
X29.5Y-65.5
X33.215Y-144.92
X33.5Y-88.5
X33.5Y-136.0
X34.215Y-125.92
X34.215Y-142.92
X34.5Y-55.5
X34.5Y-69.0
X34.77Y-129.42
X35.715Y-133.92
X35.715Y-143.92
X36.0Y-121.0
X36.215Y-132.42
X37.215Y-124.92
X37.215Y-141.92
X37.666Y-129.294
X38.635Y-126.212
X39.215Y-140.92
X39.5Y-121.0
X39.715Y-126.42
X40.0Y-61.0
X40.715Y-138.92
X41.715Y-134.19
X41.727Y-129.403
X42.215Y-124.92
X42.215Y-149.42
X43.215Y-139.92
X43.5Y-66.0
X44.715Y-128.42
X44.715Y-135.92
X44.865Y-122.0
X44.865Y-150.92
X45.0Y-118.5
X45.715Y-120.92
X45.715Y-151.92
X45.987Y-87.079
X47.215Y-137.42
X47.215Y-144.92
X47.615Y-132.42
X48.0Y-72.899
X48.0Y-100.5
X48.215Y-142.92
X48.5Y-86.911
X48.715Y-132.42
X48.85Y-70.359
X49.715Y-124.42
X49.715Y-143.92
X49.84Y-67.819
X49.865Y-106.936
X50.0Y-78.411
X50.0Y-87.911
X50.19Y-100.53
X50.3Y-97.493
X50.715Y-141.92
X51.5Y-48.5
X51.5Y-54.0
X51.715Y-127.92
X52.215Y-149.42
X52.365Y-94.936
X52.5Y-101.0
X52.715Y-129.92
X52.75Y-69.109
X53.084Y-103.942
X53.09Y-95.936
X53.5Y-41.0
X53.5Y-129.0
X53.715Y-140.92
X53.865Y-97.936
X54.215Y-124.42
X54.365Y-101.436
X54.715Y-138.92
X54.987Y-66.5
X54.987Y-75.579
X55.0Y-53.0
X55.032Y-56.032
X55.335Y-96.839
X55.487Y-91.0
X55.523Y-103.943
X55.66Y-97.89
X55.715Y-142.92
X56.0Y-49.35
X56.365Y-101.436
X56.487Y-73.579
X56.5Y-92.0
X57.215Y-139.92
X57.461Y-106.539
X57.487Y-71.579
X57.487Y-88.761
X57.5Y-90.0
X57.715Y-131.42
X58.365Y-100.436
X58.365Y-102.886
X58.439Y-62.939
X58.487Y-68.079
X58.715Y-143.92
X59.0Y-50.2
X59.365Y-112.436
X59.5Y-64.0
X59.715Y-138.92
X60.115Y-106.42
X60.401Y-98.35
X60.5Y-50.85
X61.215Y-144.92
X61.71Y-106.261
X62.715Y-142.92
X62.75Y-56.0
X62.75Y-66.5
X62.865Y-114.936
X63.215Y-123.42
X63.215Y-133.34
X63.365Y-106.236
X63.365Y-107.936
X63.5Y-48.5
X63.715Y-143.92
X63.987Y-92.579
X64.098Y-101.186
X64.715Y-130.92
X64.865Y-106.936
X64.987Y-92.079
X65.0Y-48.5
X65.0Y-88.761
X65.048Y-75.785
X65.215Y-141.92
X65.5Y-49.6
X65.916Y-106.481
X66.15Y-71.95
X66.265Y-150.92
X66.365Y-108.436
X66.5Y-88.661
X66.906Y-101.5
X67.374Y-58.524
X67.5Y-77.411
X67.5Y-117.5
X67.505Y-68.803
X67.59Y-92.299
X67.715Y-131.92
X67.715Y-140.92
X68.0Y-50.0
X68.0Y-59.5
X68.082Y-67.867
X68.365Y-103.436
X68.487Y-90.579
X68.715Y-138.92
X69.0Y-49.5
X69.0Y-78.261
X69.387Y-98.4
X69.5Y-66.0
X69.5Y-70.0
X69.5Y-72.5
X69.648Y-106.237
X69.785Y-111.0
X69.9Y-65.0
X70.0Y-51.0
X70.0Y-60.0
X70.0Y-79.111
X70.0Y-80.411
X70.215Y-132.42
X70.865Y-98.436
X70.865Y-102.436
X70.865Y-107.936
X70.96Y-67.0
X71.0Y-50.5
X71.0Y-65.0
X71.215Y-139.92
X71.5Y-79.961
X71.597Y-83.425
X72.0Y-48.562
X72.19Y-103.461
X72.265Y-107.936
X72.365Y-101.436
X72.521Y-73.546
X72.715Y-128.42
X73.0Y-66.0
X73.0Y-80.811
X73.0Y-83.411
X73.365Y-107.936
X73.467Y-102.334
X73.5Y-57.0
X73.5Y-89.911
X73.73Y-62.0
X73.88Y-98.328
X74.0Y-44.5
X74.0Y-49.5
X74.0Y-65.25
X74.0Y-81.661
X74.215Y-123.42
X74.658Y-102.587
X74.75Y-73.544
X74.85Y-95.586
X74.865Y-107.936
X75.0Y-61.15
X75.0Y-82.511
X75.215Y-144.92
X75.5Y-88.411
X75.715Y-126.92
X75.715Y-130.07
X76.0Y-50.5
X76.0Y-122.895
X76.206Y-125.925
X76.215Y-142.92
X76.285Y-101.678
X76.5Y-83.408
X76.5Y-70.0
X76.521Y-65.75
X76.551Y-84.559
X76.651Y-103.378
X77.097Y-56.924
X77.5Y-61.05
X77.505Y-98.289
X77.537Y-70.371
X77.69Y-96.436
X77.715Y-143.92
X78.0Y-69.0
X78.0Y-107.936
X78.097Y-56.466
X78.5Y-85.911
X78.5Y-89.161
X78.5Y-91.25
X78.54Y-94.736
X78.715Y-133.42
X78.715Y-134.52
X78.865Y-102.436
X78.868Y-125.573
X78.885Y-127.186
X79.0Y-74.911
X79.165Y-128.414
X79.215Y-141.92
X79.35Y-56.35
X79.475Y-107.461
X79.5Y-43.85
X79.5Y-87.411
X79.648Y-66.451
X79.65Y-63.5
X79.724Y-132.54
X80.0Y-125.0
X80.175Y-151.92
X80.3Y-55.0
X80.439Y-103.89
X80.5Y-70.0
X80.5Y-76.0
X80.5Y-89.161
X80.5Y-124.0
X80.502Y-131.762
X80.778Y-85.35
X80.892Y-107.608
X80.984Y-53.579
X81.279Y-130.984
X81.31Y-98.189
X81.365Y-102.436
X81.5Y-69.5
X81.715Y-140.92
X82.0Y-54.0
X82.117Y-68.559
X82.49Y-107.936
X82.5Y-89.75
X82.69Y-98.5
X82.715Y-138.92
X82.968Y-62.0
X83.0Y-55.0
X83.376Y-103.423
X83.717Y-74.304
X83.718Y-98.29
X83.76Y-107.936
X83.817Y-68.559
X83.912Y-93.886
X84.0Y-83.361
X84.0Y-89.411
X84.042Y-65.949
X84.564Y-101.463
X84.715Y-129.42
X85.03Y-107.936
X85.153Y-68.78
X85.215Y-139.92
X85.229Y-92.35
X85.375Y-74.084
X85.5Y-82.511
X85.5Y-88.411
X85.912Y-89.483
X85.93Y-71.594
X86.0Y-69.5
X86.001Y-50.945
X86.055Y-103.286
X86.075Y-52.244
X86.079Y-98.328
X86.215Y-139.42
X86.3Y-107.936
X86.5Y-81.661
X86.891Y-101.603
X86.912Y-87.983
X87.002Y-86.887
X87.5Y-80.911
X87.57Y-107.936
X87.912Y-89.483
X87.976Y-71.64
X88.0Y-52.0
X88.095Y-55.5
X88.19Y-93.036
X88.19Y-98.328
X88.42Y-103.148
X88.5Y-79.961
X88.5Y-91.336
X88.5Y-136.0
X88.582Y-74.121
X88.765Y-123.42
X89.0Y-109.5
X89.022Y-116.093
X89.375Y-65.962
X89.5Y-55.5
X89.829Y-103.3
X89.991Y-98.303
X90.0Y-79.111
X90.365Y-106.436
X90.412Y-87.983
X90.967Y-73.224
X91.5Y-78.261
X92.5Y-66.0
X92.5Y-117.5
X92.599Y-41.536
X93.0Y-61.5
X94.5Y-56.0
X94.65Y-88.5
X95.165Y-66.991
X95.547Y-41.6
X96.5Y-83.65
X96.5Y-102.5
X96.5Y-119.0
X97.0Y-43.5
X97.0Y-53.0
X97.0Y-54.0
X97.0Y-65.5
X98.0Y-57.5
X98.0Y-73.75
X98.25Y-67.491
X99.0Y-98.0
X99.0Y-103.0
X99.04Y-118.5
X99.04Y-164.5
X99.5Y-43.5
X100.0Y-96.5
X100.04Y-105.0
X100.04Y-120.5
X100.04Y-163.5
X101.0Y-95.5
X101.04Y-107.0
X101.04Y-122.46
X101.04Y-162.1
X102.0Y-76.5
X102.0Y-95.0
X102.04Y-109.0
X102.04Y-124.5
X102.04Y-161.0
X103.0Y-48.45
X103.0Y-94.0
X103.04Y-111.0
X103.04Y-126.5
X103.04Y-160.0
X103.5Y-41.0
X103.5Y-46.95
X103.528Y-93.035
X103.899Y-67.399
X104.0Y-72.0
X104.04Y-113.0
X104.04Y-128.5
X104.04Y-159.0
X104.5Y-92.5
X105.0Y-115.5
X105.04Y-130.5
X105.04Y-157.815
X105.5Y-41.85
X105.5Y-59.0
X105.5Y-76.0
X106.0Y-91.5
X106.04Y-117.5
X106.04Y-132.5
X106.04Y-156.5
X106.5Y-41.1
X106.5Y-45.85
X106.5Y-84.5
X106.69Y-62.96
X107.0Y-88.5
X107.0Y-93.0
X107.04Y-152.5
X108.0Y-65.5
X108.04Y-151.5
X108.5Y-41.0
X108.5Y-44.5
X108.74Y-150.5
X109.0Y-67.6
X109.96Y-41.46
X110.04Y-80.5
X110.5Y-44.15
X110.54Y-165.5
X111.04Y-117.5
X111.04Y-134.65
X111.04Y-144.0
X111.06Y-41.46
X111.5Y-48.5
X111.54Y-149.5
X111.54Y-154.5
X112.0Y-78.0
X112.04Y-136.5
X112.954Y-153.461
X112.997Y-42.6
X113.0Y-41.0
X113.0Y-71.75
X113.0Y-100.5
X113.04Y-118.5
X113.5Y-59.0
X113.54Y-152.275
X114.0Y-43.3
X114.04Y-166.5
X114.054Y-153.426
X114.5Y-88.5
X114.54Y-108.378
X114.54Y-147.5
X115.04Y-138.5
X115.5Y-91.0
X115.5Y-135.5
X116.0Y-41.5
X116.04Y-143.0
X116.311Y-139.405
X116.5Y-65.5
X116.5Y-90.0
X116.5Y-122.5
X117.0Y-50.5
X117.0Y-63.25
X117.0Y-85.82
X117.04Y-150.5
X117.494Y-44.25
X118.052Y-153.437
X118.5Y-43.951
X118.5Y-75.21
X118.54Y-119.5
X120.0Y-45.25
X120.0Y-137.5
X121.0Y-62.0
X121.0Y-71.65
X121.0Y-76.06
X121.5Y-46.95
X121.5Y-119.5
X121.5Y-135.5
X121.5Y-138.0
X122.0Y-41.5
X122.044Y-45.85
X122.44Y-143.0
X123.014Y-61.93
X123.081Y-58.081
X123.5Y-75.0
X123.52Y-106.98
X123.54Y-143.0
X124.24Y-47.74
X125.04Y-137.5
X126.0Y-131.65
X126.0Y-42.25
X126.04Y-160.5
X126.31Y-143.0
X126.54Y-124.5
X126.54Y-126.0
X126.54Y-136.5
X126.554Y-133.527
X126.562Y-129.542
X126.694Y-127.619
X126.74Y-123.334
X126.921Y-122.191
X127.04Y-119.5
X127.25Y-109.25
X127.5Y-104.5
X127.5Y-107.0
X127.54Y-146.5
X128.0Y-112.228
X128.028Y-153.925
X128.97Y-151.93
X129.0Y-52.5
X129.0Y-156.5
X129.04Y-158.688
X129.04Y-146.5
X129.377Y-157.581
X129.5Y-42.0
X129.54Y-134.0
X129.54Y-137.5
X129.64Y-97.0
X129.94Y-121.5
X130.04Y-119.5
X130.04Y-131.5
X130.321Y-151.781
X130.352Y-111.228
X130.5Y-75.5
X130.5Y-116.75
X130.99Y-85.0
X131.0Y-79.66
X131.0Y-102.5
X131.04Y-121.5
X131.04Y-130.0
X131.125Y-151.0
X131.14Y-77.5
X131.49Y-82.989
X131.5Y-87.0
X131.591Y-71.759
X131.595Y-108.595
X131.7Y-73.838
X131.803Y-89.161
X131.875Y-152.218
X132.014Y-127.324
X132.04Y-104.496
X132.19Y-132.5
X132.352Y-159.575
X132.436Y-106.516
X132.655Y-115.655
X133.04Y-125.5
X133.04Y-137.5
X133.077Y-151.925
X133.471Y-97.981
X133.5Y-59.5
X133.528Y-161.0
X134.0Y-44.0
X134.015Y-95.49
X134.04Y-119.5
X134.04Y-124.5
X134.04Y-130.0
X134.177Y-151.925
X134.32Y-114.204
X134.509Y-122.647
X134.52Y-117.02
X134.599Y-72.428
X134.64Y-65.65
X134.653Y-159.575
X134.667Y-158.433
X134.797Y-161.5
X134.89Y-112.0
X135.0Y-82.51
X135.04Y-131.0
X135.14Y-75.3
X135.577Y-151.925
X135.64Y-63.15
X135.64Y-78.15
X135.64Y-80.5
X135.852Y-103.228
X136.086Y-161.896
X136.153Y-89.65
X136.303Y-99.5
X136.44Y-86.474
X136.5Y-73.5
X136.677Y-151.925
X136.965Y-71.33
X137.006Y-144.438
X137.046Y-143.339
X137.365Y-108.728
X137.403Y-161.975
X137.54Y-145.4
X137.54Y-146.5
X137.54Y-148.0
X137.972Y-158.444
X138.04Y-149.0
X138.14Y-117.1
X138.28Y-110.741
X138.29Y-150.0
X138.5Y-114.27
X138.54Y-120.0
X138.611Y-160.693
X138.64Y-91.65
X138.677Y-159.425
X139.0Y-38.0
X139.04Y-133.5
X139.04Y-135.0
X139.04Y-165.0
X139.177Y-155.425
X139.5Y-84.5
X139.677Y-160.425
X139.862Y-88.998
X139.89Y-150.25
X139.902Y-93.79
X140.0Y-68.5
X140.0Y-75.0
X140.0Y-79.5
X140.0Y-105.5
X140.0Y-109.5
X140.04Y-124.0
X140.04Y-129.0
X140.04Y-166.5
X140.232Y-87.267
X140.5Y-70.5
X140.5Y-73.0
X140.5Y-77.44
X140.64Y-82.41
X140.64Y-95.15
X141.0Y-152.5
X141.04Y-126.0
X141.04Y-149.0
X141.14Y-129.0
X141.64Y-85.65
X141.64Y-90.65
X141.64Y-91.75
X141.677Y-163.425
X141.75Y-108.0
X141.765Y-114.58
X141.813Y-120.227
X142.0Y-104.5
X142.0Y-118.0
X142.04Y-127.5
X142.04Y-139.69
X142.19Y-122.85
X142.54Y-148.0
X142.939Y-126.101
X143.04Y-133.76
X143.41Y-115.985
X143.852Y-154.169
X144.0Y-103.5
X144.625Y-146.875
X144.79Y-85.808
X145.0Y-42.0
X145.0Y-54.0
X145.04Y-153.0
X145.39Y-78.5
X145.5Y-64.0
X146.0Y-51.75
X146.0Y-102.5
X146.04Y-137.55
X146.5Y-58.0
X146.737Y-112.243
X146.796Y-116.242
X146.831Y-120.209
X146.89Y-124.5
X146.945Y-133.555
X146.966Y-118.516
X147.0Y-146.0
X147.5Y-110.5
X148.07Y-120.525
X148.5Y-51.0
X148.577Y-73.439
X148.6Y-70.188
X148.65Y-59.0
X149.0Y-144.438
X150.076Y-116.452
X150.14Y-107.25
X150.2Y-66.5
X150.2Y-76.5
X150.2Y-82.25
X150.2Y-86.771
X150.3Y-72.0
X150.342Y-73.094
X150.5Y-53.5
X150.5Y-62.0
X150.5Y-64.0
X150.516Y-74.079
X150.75Y-78.5
X150.75Y-80.25
X151.096Y-143.519
X151.14Y-109.1
X151.315Y-118.0
X151.5Y-101.5
X151.75Y-128.68
X151.982Y-133.018
X152.0Y-83.65
X152.03Y-136.5
X152.732Y-110.85
X152.99Y-123.5
X153.0Y-126.0
X153.117Y-86.5
X153.253Y-72.09
X153.509Y-131.009
X153.54Y-135.0
X153.66Y-121.375
X154.0Y-61.0
X154.0Y-139.0
X154.003Y-77.5
X154.003Y-84.5
X154.119Y-74.002
X154.603Y-90.079
X154.808Y-92.128
X155.14Y-111.6
X155.303Y-87.65
X155.5Y-57.0
X155.5Y-82.5
X155.584Y-114.456
X155.703Y-67.5
X155.703Y-65.05
X155.861Y-62.861
X155.957Y-70.541
X155.968Y-80.51
X156.0Y-43.5
X156.0Y-75.5
X156.0Y-121.0
X156.098Y-78.197
X156.201Y-118.25
X156.5Y-95.0
X156.56Y-60.75
X157.0Y-85.5
X157.22Y-116.22
X158.29Y-92.15
X158.5Y-105.5
X158.75Y-95.25
X159.0Y-58.0
X159.0Y-68.0
X159.0Y-71.0
X159.0Y-103.5
X159.0Y-107.5
X159.075Y-74.99
X159.5Y-61.0
X159.5Y-83.65
X159.5Y-101.4
X159.5Y-114.0
X159.64Y-89.65
X160.0Y-73.0
X160.0Y-77.0
X160.0Y-97.5
X160.018Y-66.5
X160.25Y-69.25
X160.5Y-131.5
X161.0Y-59.5
X161.5Y-112.5
X161.54Y-118.0
X162.5Y-98.5
X163.64Y-100.5
X163.84Y-59.0
X164.0Y-52.0
X164.0Y-163.0
X165.54Y-73.0
X165.94Y-76.0
X166.0Y-65.5
X167.47Y-61.47
X168.259Y-85.03
X171.5Y-59.5
X172.5Y-134.5
X173.5Y-64.0
T3
X33.135Y-147.677
X33.135Y-162.917
X35.675Y-147.677
X35.675Y-162.917
X38.215Y-147.677
X38.215Y-162.917
X40.755Y-147.677
X40.755Y-162.917
X43.295Y-147.677
X43.295Y-162.917
X46.375Y-52.5
X46.375Y-55.04
X46.375Y-57.58
X46.375Y-60.12
X46.375Y-62.66
X46.375Y-65.2
X46.375Y-67.74
X46.375Y-70.28
X46.375Y-72.82
X46.375Y-75.36
X46.375Y-77.9
X46.375Y-80.44
X46.375Y-82.98
X46.375Y-85.52
X47.135Y-147.68
X47.135Y-162.92
X49.675Y-147.68
X49.675Y-162.92
X52.215Y-147.68
X52.215Y-162.92
X52.22Y-120.795
X52.22Y-136.035
X54.755Y-147.68
X54.755Y-162.92
X54.76Y-120.795
X54.76Y-136.035
X57.295Y-147.68
X57.295Y-162.92
X57.3Y-120.795
X57.3Y-136.035
X59.84Y-120.795
X59.84Y-136.035
X61.185Y-147.68
X61.185Y-162.92
X61.615Y-52.5
X61.615Y-55.04
X61.615Y-57.58
X61.615Y-60.12
X61.615Y-62.66
X61.615Y-65.2
X61.615Y-67.74
X61.615Y-70.28
X61.615Y-72.82
X61.615Y-75.36
X61.615Y-77.9
X61.615Y-80.44
X61.615Y-82.98
X61.615Y-85.52
X62.38Y-120.795
X62.38Y-136.035
X63.725Y-147.68
X63.725Y-162.92
X64.92Y-120.795
X64.92Y-136.035
X66.265Y-147.68
X66.265Y-162.92
X67.46Y-120.795
X67.46Y-136.035
X68.805Y-147.68
X68.805Y-162.92
X70.0Y-120.795
X70.0Y-136.035
X71.345Y-147.68
X71.345Y-162.92
X72.54Y-120.795
X72.54Y-136.035
X75.08Y-120.795
X75.08Y-136.035
X75.095Y-147.677
X75.095Y-162.917
X77.62Y-120.795
X77.62Y-136.035
X77.635Y-147.677
X77.635Y-162.917
X80.16Y-120.795
X80.16Y-136.035
X80.175Y-147.677
X80.175Y-162.917
X82.7Y-120.795
X82.7Y-136.035
X82.715Y-147.677
X82.715Y-162.917
X85.24Y-120.795
X85.24Y-136.035
X85.255Y-147.677
X85.255Y-162.917
X128.0Y-61.67
X128.0Y-64.21
X128.0Y-66.75
X128.0Y-69.29
X128.0Y-71.83
X128.0Y-74.37
X128.0Y-76.91
X128.0Y-79.45
X128.0Y-81.99
X128.0Y-84.53
X128.0Y-87.07
X128.0Y-89.61
X128.0Y-92.15
X128.0Y-94.69
X137.04Y-123.6
X137.04Y-126.14
X137.04Y-128.68
X137.04Y-131.22
X137.04Y-133.76
X137.04Y-136.3
X137.04Y-138.84
X137.04Y-141.38
X143.24Y-61.67
X143.24Y-64.21
X143.24Y-66.75
X143.24Y-69.29
X143.24Y-71.83
X143.24Y-74.37
X143.24Y-76.91
X143.24Y-79.45
X143.24Y-81.99
X143.24Y-84.53
X143.24Y-87.07
X143.24Y-89.61
X143.24Y-92.15
X143.24Y-94.69
X144.66Y-123.6
X144.66Y-126.14
X144.66Y-128.68
X144.66Y-131.22
X144.66Y-133.76
X144.66Y-136.3
X144.66Y-138.84
X144.66Y-141.38
X147.4Y-61.67
X147.4Y-64.21
X147.4Y-66.75
X147.4Y-69.29
X147.4Y-71.83
X147.4Y-74.37
X147.4Y-76.91
X147.4Y-79.45
X147.4Y-81.99
X147.4Y-84.53
X147.4Y-87.07
X147.4Y-89.61
X147.4Y-92.15
X147.4Y-94.69
X149.04Y-123.6
X149.04Y-126.14
X149.04Y-128.68
X149.04Y-131.22
X149.04Y-133.76
X149.04Y-136.3
X149.04Y-138.84
X149.04Y-141.38
X156.66Y-123.6
X156.66Y-126.14
X156.66Y-128.68
X156.66Y-131.22
X156.66Y-133.76
X156.66Y-136.3
X156.66Y-138.84
X156.66Y-141.38
X162.64Y-61.67
X162.64Y-64.21
X162.64Y-66.75
X162.64Y-69.29
X162.64Y-71.83
X162.64Y-74.37
X162.64Y-76.91
X162.64Y-79.45
X162.64Y-81.99
X162.64Y-84.53
X162.64Y-87.07
X162.64Y-89.61
X162.64Y-92.15
X162.64Y-94.69
T4
X33.0Y-94.0
X33.0Y-96.5
X33.0Y-99.0
X36.792Y-112.497
X36.792Y-118.497
X39.0Y-94.0
X39.0Y-96.5
X39.0Y-99.0
X39.292Y-112.497
X39.292Y-118.497
X41.792Y-112.497
X41.792Y-118.497
X51.365Y-108.821
X51.365Y-114.821
X53.865Y-108.821
X53.865Y-114.821
X56.365Y-108.821
X56.365Y-114.821
T5
X168.46Y-140.0
X171.0Y-140.0
T6
X33.0Y-72.0
X33.0Y-76.5
X39.5Y-72.0
X39.5Y-76.5
X60.89Y-110.686
X60.89Y-115.186
X67.39Y-110.686
X67.39Y-115.186
X167.5Y-82.25
X167.5Y-88.75
X172.0Y-82.25
X172.0Y-88.75
M30
