G04 #@! TF.GenerationSoftware,KiCad,Pcbnew,8.0.1*
G04 #@! TF.CreationDate,2024-05-29T20:25:03-07:00*
G04 #@! TF.ProjectId,8-Bit-Computer,382d4269-742d-4436-9f6d-70757465722e,rev?*
G04 #@! TF.SameCoordinates,Original*
G04 #@! TF.FileFunction,Soldermask,Top*
G04 #@! TF.FilePolarity,Negative*
%FSLAX46Y46*%
G04 Gerber Fmt 4.6, Leading zero omitted, Abs format (unit mm)*
G04 Created by KiCad (PCBNEW 8.0.1) date 2024-05-29 20:25:03*
%MOMM*%
%LPD*%
G01*
G04 APERTURE LIST*
G04 Aperture macros list*
%AMRoundRect*
0 Rectangle with rounded corners*
0 $1 Rounding radius*
0 $2 $3 $4 $5 $6 $7 $8 $9 X,Y pos of 4 corners*
0 Add a 4 corners polygon primitive as box body*
4,1,4,$2,$3,$4,$5,$6,$7,$8,$9,$2,$3,0*
0 Add four circle primitives for the rounded corners*
1,1,$1+$1,$2,$3*
1,1,$1+$1,$4,$5*
1,1,$1+$1,$6,$7*
1,1,$1+$1,$8,$9*
0 Add four rect primitives between the rounded corners*
20,1,$1+$1,$2,$3,$4,$5,0*
20,1,$1+$1,$4,$5,$6,$7,0*
20,1,$1+$1,$6,$7,$8,$9,0*
20,1,$1+$1,$8,$9,$2,$3,0*%
G04 Aperture macros list end*
%ADD10RoundRect,0.154000X0.154000X0.204000X-0.154000X0.204000X-0.154000X-0.204000X0.154000X-0.204000X0*%
%ADD11RoundRect,0.262750X-0.475250X0.262750X-0.475250X-0.262750X0.475250X-0.262750X0.475250X0.262750X0*%
%ADD12RoundRect,0.154000X-0.204000X0.154000X-0.204000X-0.154000X0.204000X-0.154000X0.204000X0.154000X0*%
%ADD13RoundRect,0.169000X-0.844000X-0.169000X0.844000X-0.169000X0.844000X0.169000X-0.844000X0.169000X0*%
%ADD14RoundRect,0.262750X-0.262750X-0.475250X0.262750X-0.475250X0.262750X0.475250X-0.262750X0.475250X0*%
%ADD15C,2.076000*%
%ADD16RoundRect,0.159000X-0.189000X0.159000X-0.189000X-0.159000X0.189000X-0.159000X0.189000X0.159000X0*%
%ADD17RoundRect,0.038000X-0.800000X-0.800000X0.800000X-0.800000X0.800000X0.800000X-0.800000X0.800000X0*%
%ADD18O,1.676000X1.676000*%
%ADD19RoundRect,0.154000X-0.154000X-0.204000X0.154000X-0.204000X0.154000X0.204000X-0.154000X0.204000X0*%
%ADD20RoundRect,0.169000X0.694000X0.169000X-0.694000X0.169000X-0.694000X-0.169000X0.694000X-0.169000X0*%
%ADD21RoundRect,0.262750X0.262750X0.475250X-0.262750X0.475250X-0.262750X-0.475250X0.262750X-0.475250X0*%
%ADD22C,1.676000*%
%ADD23RoundRect,0.169000X0.169000X-0.844000X0.169000X0.844000X-0.169000X0.844000X-0.169000X-0.844000X0*%
%ADD24RoundRect,0.154000X0.204000X-0.154000X0.204000X0.154000X-0.204000X0.154000X-0.204000X-0.154000X0*%
%ADD25RoundRect,0.119000X-0.656500X-0.119000X0.656500X-0.119000X0.656500X0.119000X-0.656500X0.119000X0*%
%ADD26RoundRect,0.169000X0.169000X-0.894000X0.169000X0.894000X-0.169000X0.894000X-0.169000X-0.894000X0*%
%ADD27RoundRect,0.262750X0.475250X-0.262750X0.475250X0.262750X-0.475250X0.262750X-0.475250X-0.262750X0*%
%ADD28RoundRect,0.038000X0.380000X-1.325000X0.380000X1.325000X-0.380000X1.325000X-0.380000X-1.325000X0*%
%ADD29RoundRect,0.159000X0.189000X-0.159000X0.189000X0.159000X-0.189000X0.159000X-0.189000X-0.159000X0*%
%ADD30RoundRect,0.038000X0.850000X-0.850000X0.850000X0.850000X-0.850000X0.850000X-0.850000X-0.850000X0*%
%ADD31O,1.776000X1.776000*%
%ADD32RoundRect,0.119000X-0.119000X0.656500X-0.119000X-0.656500X0.119000X-0.656500X0.119000X0.656500X0*%
%ADD33RoundRect,0.159000X-0.159000X-0.189000X0.159000X-0.189000X0.159000X0.189000X-0.159000X0.189000X0*%
%ADD34RoundRect,0.038000X-0.900000X-0.900000X0.900000X-0.900000X0.900000X0.900000X-0.900000X0.900000X0*%
%ADD35C,1.876000*%
%ADD36RoundRect,0.169000X0.844000X0.169000X-0.844000X0.169000X-0.844000X-0.169000X0.844000X-0.169000X0*%
%ADD37RoundRect,0.169000X-0.169000X0.894000X-0.169000X-0.894000X0.169000X-0.894000X0.169000X0.894000X0*%
%ADD38RoundRect,0.159000X0.159000X0.189000X-0.159000X0.189000X-0.159000X-0.189000X0.159000X-0.189000X0*%
%ADD39RoundRect,0.038000X-0.800000X0.800000X-0.800000X-0.800000X0.800000X-0.800000X0.800000X0.800000X0*%
%ADD40RoundRect,0.038000X0.900000X-0.900000X0.900000X0.900000X-0.900000X0.900000X-0.900000X-0.900000X0*%
%ADD41RoundRect,0.244000X0.269000X-0.244000X0.269000X0.244000X-0.269000X0.244000X-0.269000X-0.244000X0*%
%ADD42RoundRect,0.394000X-0.644000X-0.394000X0.644000X-0.394000X0.644000X0.394000X-0.644000X0.394000X0*%
%ADD43RoundRect,0.519000X-0.519000X-1.419000X0.519000X-1.419000X0.519000X1.419000X-0.519000X1.419000X0*%
%ADD44RoundRect,0.169000X-0.694000X-0.169000X0.694000X-0.169000X0.694000X0.169000X-0.694000X0.169000X0*%
%ADD45RoundRect,0.269000X0.269000X0.494000X-0.269000X0.494000X-0.269000X-0.494000X0.269000X-0.494000X0*%
%ADD46RoundRect,0.119000X0.119000X-0.656500X0.119000X0.656500X-0.119000X0.656500X-0.119000X-0.656500X0*%
%ADD47RoundRect,0.264615X0.423385X0.423385X-0.423385X0.423385X-0.423385X-0.423385X0.423385X-0.423385X0*%
%ADD48RoundRect,0.264615X0.773385X0.423385X-0.773385X0.423385X-0.773385X-0.423385X0.773385X-0.423385X0*%
G04 APERTURE END LIST*
D10*
X164060000Y-107000000D03*
X163040000Y-107000000D03*
D11*
X106000000Y-38125000D03*
X106000000Y-40000000D03*
D12*
X78000000Y-53980000D03*
X78000000Y-55000000D03*
D13*
X140190000Y-112100001D03*
X140190000Y-113370001D03*
X140190000Y-114640001D03*
X140190000Y-115910001D03*
X140190000Y-117180001D03*
X140190000Y-118450001D03*
X140190000Y-119720001D03*
X145140000Y-119720001D03*
X145140000Y-118450001D03*
X145140000Y-117180001D03*
X145140000Y-115910001D03*
X145140000Y-114640001D03*
X145140000Y-113370001D03*
X145140000Y-112100001D03*
D11*
X46000000Y-41062500D03*
X46000000Y-42937500D03*
D14*
X121000000Y-121000000D03*
X122875000Y-121000000D03*
D12*
X68000000Y-53980000D03*
X68000000Y-55000000D03*
D11*
X165500000Y-52000000D03*
X165500000Y-53875000D03*
D15*
X33000000Y-72000000D03*
X39500000Y-72000000D03*
X33000000Y-76500000D03*
X39500000Y-76500000D03*
D16*
X33215000Y-130440000D03*
X33215000Y-131400000D03*
D17*
X147400000Y-61670000D03*
D18*
X147400000Y-64210000D03*
X147400000Y-66750000D03*
X147400000Y-69290000D03*
X147400000Y-71830000D03*
X147400000Y-74370000D03*
X147400000Y-76910000D03*
X147400000Y-79450000D03*
X147400000Y-81990000D03*
X147400000Y-84530000D03*
X147400000Y-87070000D03*
X147400000Y-89610000D03*
X147400000Y-92150000D03*
X147400000Y-94690000D03*
X162640000Y-94690000D03*
X162640000Y-92150000D03*
X162640000Y-89610000D03*
X162640000Y-87070000D03*
X162640000Y-84530000D03*
X162640000Y-81990000D03*
X162640000Y-79450000D03*
X162640000Y-76910000D03*
X162640000Y-74370000D03*
X162640000Y-71830000D03*
X162640000Y-69290000D03*
X162640000Y-66750000D03*
X162640000Y-64210000D03*
X162640000Y-61670000D03*
D19*
X74490000Y-70000000D03*
X75510000Y-70000000D03*
D11*
X43000000Y-41062500D03*
X43000000Y-42937500D03*
D20*
X37625000Y-85905000D03*
X37625000Y-84635000D03*
X37625000Y-83365000D03*
X37625000Y-82095000D03*
X32375000Y-82095000D03*
X32375000Y-83365000D03*
X32375000Y-84635000D03*
X32375000Y-85905000D03*
D19*
X124837500Y-121010001D03*
X125857500Y-121010001D03*
X124837500Y-126980001D03*
X125857500Y-126980001D03*
X150365000Y-51980000D03*
X151385000Y-51980000D03*
D21*
X167852500Y-109500000D03*
X165977500Y-109500000D03*
D17*
X47135000Y-162920000D03*
D22*
X49675000Y-162920000D03*
X52215000Y-162920000D03*
X54755000Y-162920000D03*
X57295000Y-162920000D03*
X57295000Y-147680000D03*
X54755000Y-147680000D03*
X52215000Y-147680000D03*
X49675000Y-147680000D03*
X47135000Y-147680000D03*
D11*
X125920000Y-38062500D03*
X125920000Y-39937500D03*
D21*
X155385000Y-48000000D03*
X153510000Y-48000000D03*
D19*
X29990000Y-64000000D03*
X31010000Y-64000000D03*
X166490000Y-71000000D03*
X167510000Y-71000000D03*
D23*
X70920000Y-104910934D03*
X72190000Y-104910934D03*
X73460000Y-104910934D03*
X74730000Y-104910934D03*
X76000000Y-104910934D03*
X77270000Y-104910934D03*
X78540000Y-104910934D03*
X79810000Y-104910934D03*
X79810000Y-99960934D03*
X78540000Y-99960934D03*
X77270000Y-99960934D03*
X76000000Y-99960934D03*
X74730000Y-99960934D03*
X73460000Y-99960934D03*
X72190000Y-99960934D03*
X70920000Y-99960934D03*
D19*
X122870000Y-48580000D03*
X123890000Y-48580000D03*
D16*
X33213842Y-58885000D03*
X33213842Y-59845000D03*
D24*
X85980000Y-48510000D03*
X85980000Y-47490000D03*
D19*
X122980000Y-53000000D03*
X124000000Y-53000000D03*
D12*
X111500000Y-44980000D03*
X111500000Y-46000000D03*
D11*
X171500000Y-52062500D03*
X171500000Y-53937500D03*
D16*
X40213842Y-56385000D03*
X40213842Y-57345000D03*
D24*
X93980000Y-48500000D03*
X93980000Y-47480000D03*
D11*
X109960000Y-38125000D03*
X109960000Y-40000000D03*
D21*
X164000000Y-148500000D03*
X162125000Y-148500000D03*
D10*
X37020000Y-107500000D03*
X36000000Y-107500000D03*
D25*
X130202500Y-104327645D03*
X130202500Y-104977645D03*
X130202500Y-105627645D03*
X130202500Y-106277645D03*
X130202500Y-106927645D03*
X130202500Y-107577645D03*
X130202500Y-108227645D03*
X130202500Y-108877645D03*
X130202500Y-109527645D03*
X130202500Y-110177645D03*
X135927500Y-110177645D03*
X135927500Y-109527645D03*
X135927500Y-108877645D03*
X135927500Y-108227645D03*
X135927500Y-107577645D03*
X135927500Y-106927645D03*
X135927500Y-106277645D03*
X135927500Y-105627645D03*
X135927500Y-104977645D03*
X135927500Y-104327645D03*
D26*
X81697500Y-85133434D03*
X82967500Y-85133434D03*
X84237500Y-85133434D03*
X85507500Y-85133434D03*
X86777500Y-85133434D03*
X88047500Y-85133434D03*
X89317500Y-85133434D03*
X90587500Y-85133434D03*
X91857500Y-85133434D03*
X93127500Y-85133434D03*
X93127500Y-75833434D03*
X91857500Y-75833434D03*
X90587500Y-75833434D03*
X89317500Y-75833434D03*
X88047500Y-75833434D03*
X86777500Y-75833434D03*
X85507500Y-75833434D03*
X84237500Y-75833434D03*
X82967500Y-75833434D03*
X81697500Y-75833434D03*
D13*
X42825000Y-91537316D03*
X42825000Y-92807316D03*
X42825000Y-94077316D03*
X42825000Y-95347316D03*
X42825000Y-96617316D03*
X42825000Y-97887316D03*
X42825000Y-99157316D03*
X47775000Y-99157316D03*
X47775000Y-97887316D03*
X47775000Y-96617316D03*
X47775000Y-95347316D03*
X47775000Y-94077316D03*
X47775000Y-92807316D03*
X47775000Y-91537316D03*
D27*
X79380000Y-42437500D03*
X79380000Y-40562500D03*
D24*
X40213842Y-55375000D03*
X40213842Y-54355000D03*
D28*
X78680000Y-115175934D03*
X79950000Y-115175934D03*
X81220000Y-115175934D03*
X82490000Y-115175934D03*
X83760000Y-115175934D03*
X85030000Y-115175934D03*
X86300000Y-115175934D03*
X87570000Y-115175934D03*
X87570000Y-109925934D03*
X86300000Y-109925934D03*
X85030000Y-109925934D03*
X83760000Y-109925934D03*
X82490000Y-109925934D03*
X81220000Y-109925934D03*
X79950000Y-109925934D03*
X78680000Y-109925934D03*
D24*
X39375000Y-82615000D03*
X39375000Y-81595000D03*
D29*
X82000000Y-97460000D03*
X82000000Y-96500000D03*
D30*
X168460000Y-140000000D03*
D31*
X171000000Y-140000000D03*
D12*
X107520000Y-44980000D03*
X107520000Y-46000000D03*
D23*
X121230000Y-144475001D03*
X122500000Y-144475001D03*
X123770000Y-144475001D03*
X125040000Y-144475001D03*
X126310000Y-144475001D03*
X127580000Y-144475001D03*
X128850000Y-144475001D03*
X128850000Y-139525001D03*
X127580000Y-139525001D03*
X126310000Y-139525001D03*
X125040000Y-139525001D03*
X123770000Y-139525001D03*
X122500000Y-139525001D03*
X121230000Y-139525001D03*
D21*
X41222500Y-107775000D03*
X39347500Y-107775000D03*
D12*
X117470000Y-44980000D03*
X117470000Y-46000000D03*
D11*
X52000000Y-41125000D03*
X52000000Y-43000000D03*
D32*
X56790000Y-99573434D03*
X56140000Y-99573434D03*
X55490000Y-99573434D03*
X54840000Y-99573434D03*
X54190000Y-99573434D03*
X53540000Y-99573434D03*
X52890000Y-99573434D03*
X52240000Y-99573434D03*
X51590000Y-99573434D03*
X50940000Y-99573434D03*
X50940000Y-105298434D03*
X51590000Y-105298434D03*
X52240000Y-105298434D03*
X52890000Y-105298434D03*
X53540000Y-105298434D03*
X54190000Y-105298434D03*
X54840000Y-105298434D03*
X55490000Y-105298434D03*
X56140000Y-105298434D03*
X56790000Y-105298434D03*
D11*
X62500000Y-45562500D03*
X62500000Y-47437500D03*
D33*
X70540000Y-97500000D03*
X71500000Y-97500000D03*
D10*
X164060000Y-104500001D03*
X163040000Y-104500001D03*
X153550000Y-148000001D03*
X152530000Y-148000001D03*
D17*
X46375000Y-52500000D03*
D18*
X46375000Y-55040000D03*
X46375000Y-57580000D03*
X46375000Y-60120000D03*
X46375000Y-62660000D03*
X46375000Y-65200000D03*
X46375000Y-67740000D03*
X46375000Y-70280000D03*
X46375000Y-72820000D03*
X46375000Y-75360000D03*
X46375000Y-77900000D03*
X46375000Y-80440000D03*
X46375000Y-82980000D03*
X46375000Y-85520000D03*
X61615000Y-85520000D03*
X61615000Y-82980000D03*
X61615000Y-80440000D03*
X61615000Y-77900000D03*
X61615000Y-75360000D03*
X61615000Y-72820000D03*
X61615000Y-70280000D03*
X61615000Y-67740000D03*
X61615000Y-65200000D03*
X61615000Y-62660000D03*
X61615000Y-60120000D03*
X61615000Y-57580000D03*
X61615000Y-55040000D03*
X61615000Y-52500000D03*
D21*
X167852500Y-122000000D03*
X165977500Y-122000000D03*
D29*
X120000000Y-139480000D03*
X120000000Y-138520000D03*
D34*
X51365000Y-108820934D03*
D35*
X53865000Y-108820934D03*
X56365000Y-108820934D03*
X51365000Y-114820934D03*
X53865000Y-114820934D03*
X56365000Y-114820934D03*
D23*
X69920000Y-63500000D03*
X71190000Y-63500000D03*
X72460000Y-63500000D03*
X73730000Y-63500000D03*
X75000000Y-63500000D03*
X76270000Y-63500000D03*
X77540000Y-63500000D03*
X78810000Y-63500000D03*
X78810000Y-58550000D03*
X77540000Y-58550000D03*
X76270000Y-58550000D03*
X75000000Y-58550000D03*
X73730000Y-58550000D03*
X72460000Y-58550000D03*
X71190000Y-58550000D03*
X69920000Y-58550000D03*
D32*
X89925000Y-67137500D03*
X89275000Y-67137500D03*
X88625000Y-67137500D03*
X87975000Y-67137500D03*
X87325000Y-67137500D03*
X86675000Y-67137500D03*
X86025000Y-67137500D03*
X85375000Y-67137500D03*
X84725000Y-67137500D03*
X84075000Y-67137500D03*
X84075000Y-72862500D03*
X84725000Y-72862500D03*
X85375000Y-72862500D03*
X86025000Y-72862500D03*
X86675000Y-72862500D03*
X87325000Y-72862500D03*
X87975000Y-72862500D03*
X88625000Y-72862500D03*
X89275000Y-72862500D03*
X89925000Y-72862500D03*
D27*
X100660000Y-42437500D03*
X100660000Y-40562500D03*
X85460000Y-42437500D03*
X85460000Y-40562500D03*
D19*
X150365000Y-49990000D03*
X151385000Y-49990000D03*
D29*
X40000000Y-67230000D03*
X40000000Y-66270000D03*
D14*
X122625000Y-118500000D03*
X124500000Y-118500000D03*
D11*
X71000000Y-45562500D03*
X71000000Y-47437500D03*
D12*
X109510000Y-44980000D03*
X109510000Y-46000000D03*
D24*
X90000000Y-48500000D03*
X90000000Y-47480000D03*
D33*
X60020000Y-105500000D03*
X60980000Y-105500000D03*
D21*
X172500000Y-73500000D03*
X170625000Y-73500000D03*
X164000000Y-151000000D03*
X162125000Y-151000000D03*
D12*
X113490000Y-44980000D03*
X113490000Y-46000000D03*
D10*
X164010000Y-117000000D03*
X162990000Y-117000000D03*
D12*
X105530000Y-44980000D03*
X105530000Y-46000000D03*
D26*
X130635000Y-57470000D03*
X131905000Y-57470000D03*
X133175000Y-57470000D03*
X134445000Y-57470000D03*
X135715000Y-57470000D03*
X136985000Y-57470000D03*
X138255000Y-57470000D03*
X139525000Y-57470000D03*
X140795000Y-57470000D03*
X142065000Y-57470000D03*
X142065000Y-48170000D03*
X140795000Y-48170000D03*
X139525000Y-48170000D03*
X138255000Y-48170000D03*
X136985000Y-48170000D03*
X135715000Y-48170000D03*
X134445000Y-48170000D03*
X133175000Y-48170000D03*
X131905000Y-48170000D03*
X130635000Y-48170000D03*
D24*
X87970000Y-48510000D03*
X87970000Y-47490000D03*
D12*
X171500000Y-56990000D03*
X171500000Y-58010000D03*
D11*
X56000000Y-45562500D03*
X56000000Y-47437500D03*
D21*
X167852500Y-117000000D03*
X165977500Y-117000000D03*
D11*
X68000000Y-45625000D03*
X68000000Y-47500000D03*
D16*
X155520000Y-112500001D03*
X155520000Y-113460001D03*
D36*
X118015000Y-145810001D03*
X118015000Y-144540001D03*
X118015000Y-143270001D03*
X118015000Y-142000001D03*
X118015000Y-140730001D03*
X118015000Y-139460001D03*
X118015000Y-138190001D03*
X113065000Y-138190001D03*
X113065000Y-139460001D03*
X113065000Y-140730001D03*
X113065000Y-142000001D03*
X113065000Y-143270001D03*
X113065000Y-144540001D03*
X113065000Y-145810001D03*
D37*
X95715000Y-53850000D03*
X94445000Y-53850000D03*
X93175000Y-53850000D03*
X91905000Y-53850000D03*
X90635000Y-53850000D03*
X89365000Y-53850000D03*
X88095000Y-53850000D03*
X86825000Y-53850000D03*
X85555000Y-53850000D03*
X84285000Y-53850000D03*
X84285000Y-63150000D03*
X85555000Y-63150000D03*
X86825000Y-63150000D03*
X88095000Y-63150000D03*
X89365000Y-63150000D03*
X90635000Y-63150000D03*
X91905000Y-63150000D03*
X93175000Y-63150000D03*
X94445000Y-63150000D03*
X95715000Y-63150000D03*
D10*
X164010000Y-119500000D03*
X162990000Y-119500000D03*
D21*
X164000000Y-156000000D03*
X162125000Y-156000000D03*
D38*
X39693842Y-58865000D03*
X38733842Y-58865000D03*
D19*
X124837500Y-124990001D03*
X125857500Y-124990001D03*
D11*
X65000000Y-45562500D03*
X65000000Y-47437500D03*
X49000000Y-41062500D03*
X49000000Y-42937500D03*
D19*
X124977500Y-130630001D03*
X125997500Y-130630001D03*
X166990000Y-76000000D03*
X168010000Y-76000000D03*
D38*
X47780000Y-89847316D03*
X46820000Y-89847316D03*
D10*
X153550000Y-154000001D03*
X152530000Y-154000001D03*
D33*
X32020000Y-87500000D03*
X32980000Y-87500000D03*
D21*
X167852500Y-119500000D03*
X165977500Y-119500000D03*
D10*
X164060000Y-121500000D03*
X163040000Y-121500000D03*
D19*
X124977500Y-134610001D03*
X125997500Y-134610001D03*
D14*
X121562500Y-131000000D03*
X123437500Y-131000000D03*
D24*
X82000000Y-48510000D03*
X82000000Y-47490000D03*
D38*
X79980000Y-84500000D03*
X79020000Y-84500000D03*
D33*
X71000000Y-70000000D03*
X71960000Y-70000000D03*
D12*
X103540000Y-44980000D03*
X103540000Y-46000000D03*
D14*
X121602500Y-116000000D03*
X123477500Y-116000000D03*
D12*
X76000000Y-53990000D03*
X76000000Y-55010000D03*
D38*
X129020000Y-119500001D03*
X128060000Y-119500001D03*
D14*
X121562500Y-128500000D03*
X123437500Y-128500000D03*
D12*
X63500000Y-53990000D03*
X63500000Y-55010000D03*
D34*
X36792500Y-112497500D03*
D35*
X39292500Y-112497500D03*
X41792500Y-112497500D03*
X36792500Y-118497500D03*
X39292500Y-118497500D03*
X41792500Y-118497500D03*
D33*
X112560000Y-147500001D03*
X113520000Y-147500001D03*
D27*
X94580000Y-42437500D03*
X94580000Y-40562500D03*
D16*
X39500000Y-69000000D03*
X39500000Y-69960000D03*
D12*
X70000000Y-53990000D03*
X70000000Y-55010000D03*
D19*
X166990000Y-66000000D03*
X168010000Y-66000000D03*
D10*
X153550000Y-152000001D03*
X152530000Y-152000001D03*
D21*
X172500000Y-65500000D03*
X170625000Y-65500000D03*
D14*
X121000000Y-126000000D03*
X122875000Y-126000000D03*
D24*
X51000000Y-46467500D03*
X51000000Y-45447500D03*
D12*
X115480000Y-44980000D03*
X115480000Y-46000000D03*
D39*
X85240000Y-120795000D03*
D18*
X82700000Y-120795000D03*
X80160000Y-120795000D03*
X77620000Y-120795000D03*
X75080000Y-120795000D03*
X72540000Y-120795000D03*
X70000000Y-120795000D03*
X67460000Y-120795000D03*
X64920000Y-120795000D03*
X62380000Y-120795000D03*
X59840000Y-120795000D03*
X57300000Y-120795000D03*
X54760000Y-120795000D03*
X52220000Y-120795000D03*
X52220000Y-136035000D03*
X54760000Y-136035000D03*
X57300000Y-136035000D03*
X59840000Y-136035000D03*
X62380000Y-136035000D03*
X64920000Y-136035000D03*
X67460000Y-136035000D03*
X70000000Y-136035000D03*
X72540000Y-136035000D03*
X75080000Y-136035000D03*
X77620000Y-136035000D03*
X80160000Y-136035000D03*
X82700000Y-136035000D03*
X85240000Y-136035000D03*
D10*
X153560000Y-156000001D03*
X152540000Y-156000001D03*
D21*
X172500000Y-69500000D03*
X170625000Y-69500000D03*
D11*
X59000000Y-45500000D03*
X59000000Y-47375000D03*
X117920000Y-38062500D03*
X117920000Y-39937500D03*
D10*
X164060000Y-114500000D03*
X163040000Y-114500000D03*
D24*
X43500000Y-46457500D03*
X43500000Y-45437500D03*
D21*
X172500000Y-61500000D03*
X170625000Y-61500000D03*
D11*
X74000000Y-45562500D03*
X74000000Y-47437500D03*
D19*
X122980000Y-51010000D03*
X124000000Y-51010000D03*
D21*
X164000000Y-161000000D03*
X162125000Y-161000000D03*
X167852500Y-112000000D03*
X165977500Y-112000000D03*
D12*
X66000000Y-53980000D03*
X66000000Y-55000000D03*
D33*
X165520000Y-62000000D03*
X166480000Y-62000000D03*
D14*
X121540000Y-133500000D03*
X123415000Y-133500000D03*
D24*
X95970000Y-48500000D03*
X95970000Y-47480000D03*
X91990000Y-48500000D03*
X91990000Y-47480000D03*
D10*
X164060000Y-109500000D03*
X163040000Y-109500000D03*
D21*
X167915000Y-107000000D03*
X166040000Y-107000000D03*
D16*
X40000000Y-64290000D03*
X40000000Y-65250000D03*
D12*
X165500000Y-56990000D03*
X165500000Y-58010000D03*
D37*
X77627500Y-75833434D03*
X76357500Y-75833434D03*
X75087500Y-75833434D03*
X73817500Y-75833434D03*
X72547500Y-75833434D03*
X71277500Y-75833434D03*
X70007500Y-75833434D03*
X68737500Y-75833434D03*
X67467500Y-75833434D03*
X66197500Y-75833434D03*
X66197500Y-85133434D03*
X67467500Y-85133434D03*
X68737500Y-85133434D03*
X70007500Y-85133434D03*
X71277500Y-85133434D03*
X72547500Y-85133434D03*
X73817500Y-85133434D03*
X75087500Y-85133434D03*
X76357500Y-85133434D03*
X77627500Y-85133434D03*
D21*
X164000000Y-143500000D03*
X162125000Y-143500000D03*
D19*
X122980000Y-60960000D03*
X124000000Y-60960000D03*
D17*
X137040000Y-123600001D03*
D18*
X137040000Y-126140001D03*
X137040000Y-128680001D03*
X137040000Y-131220001D03*
X137040000Y-133760001D03*
X137040000Y-136300001D03*
X137040000Y-138840001D03*
X137040000Y-141380001D03*
X144660000Y-141380001D03*
X144660000Y-138840001D03*
X144660000Y-136300001D03*
X144660000Y-133760001D03*
X144660000Y-131220001D03*
X144660000Y-128680001D03*
X144660000Y-126140001D03*
X144660000Y-123600001D03*
D19*
X166490000Y-78500000D03*
X167510000Y-78500000D03*
D24*
X40213842Y-53375000D03*
X40213842Y-52355000D03*
D29*
X34215000Y-128400000D03*
X34215000Y-127440000D03*
D40*
X33000000Y-99000000D03*
D35*
X33000000Y-96500000D03*
X33000000Y-94000000D03*
X39000000Y-99000000D03*
X39000000Y-96500000D03*
X39000000Y-94000000D03*
D16*
X30595000Y-82135000D03*
X30595000Y-83095000D03*
D12*
X39375000Y-83595000D03*
X39375000Y-84615000D03*
D11*
X113920000Y-38062500D03*
X113920000Y-39937500D03*
D19*
X124977500Y-132620001D03*
X125997500Y-132620001D03*
D14*
X121062500Y-123500000D03*
X122937500Y-123500000D03*
D23*
X81420000Y-104910934D03*
X82690000Y-104910934D03*
X83960000Y-104910934D03*
X85230000Y-104910934D03*
X86500000Y-104910934D03*
X87770000Y-104910934D03*
X89040000Y-104910934D03*
X90310000Y-104910934D03*
X90310000Y-99960934D03*
X89040000Y-99960934D03*
X87770000Y-99960934D03*
X86500000Y-99960934D03*
X85230000Y-99960934D03*
X83960000Y-99960934D03*
X82690000Y-99960934D03*
X81420000Y-99960934D03*
X34770000Y-135895000D03*
X36040000Y-135895000D03*
X37310000Y-135895000D03*
X38580000Y-135895000D03*
X39850000Y-135895000D03*
X41120000Y-135895000D03*
X42390000Y-135895000D03*
X43660000Y-135895000D03*
X43660000Y-130945000D03*
X42390000Y-130945000D03*
X41120000Y-130945000D03*
X39850000Y-130945000D03*
X38580000Y-130945000D03*
X37310000Y-130945000D03*
X36040000Y-130945000D03*
X34770000Y-130945000D03*
D41*
X160650000Y-134275000D03*
X160650000Y-132725000D03*
D24*
X83990000Y-48510000D03*
X83990000Y-47490000D03*
D11*
X133920000Y-38062500D03*
X133920000Y-39937500D03*
D27*
X97620000Y-42437500D03*
X97620000Y-40562500D03*
D23*
X35905000Y-127895000D03*
X37175000Y-127895000D03*
X38445000Y-127895000D03*
X39715000Y-127895000D03*
X40985000Y-127895000D03*
X42255000Y-127895000D03*
X43525000Y-127895000D03*
X43525000Y-122945000D03*
X42255000Y-122945000D03*
X40985000Y-122945000D03*
X39715000Y-122945000D03*
X38445000Y-122945000D03*
X37175000Y-122945000D03*
X35905000Y-122945000D03*
D21*
X164000000Y-153500000D03*
X162125000Y-153500000D03*
D15*
X167500000Y-88750000D03*
X167500000Y-82250000D03*
X172000000Y-88750000D03*
X172000000Y-82250000D03*
D19*
X166490000Y-73500000D03*
X167510000Y-73500000D03*
D21*
X155447500Y-45000000D03*
X153572500Y-45000000D03*
D24*
X48500000Y-46510000D03*
X48500000Y-45490000D03*
D21*
X164000000Y-158500000D03*
X162125000Y-158500000D03*
D24*
X46000000Y-46457500D03*
X46000000Y-45437500D03*
D19*
X150365000Y-46010000D03*
X151385000Y-46010000D03*
D11*
X53000000Y-45562500D03*
X53000000Y-47437500D03*
D15*
X60890000Y-110685934D03*
X67390000Y-110685934D03*
X60890000Y-115185934D03*
X67390000Y-115185934D03*
D12*
X46500000Y-115327500D03*
X46500000Y-116347500D03*
X74000000Y-53970000D03*
X74000000Y-54990000D03*
D27*
X91540000Y-42437500D03*
X91540000Y-40562500D03*
D21*
X155447500Y-54000000D03*
X153572500Y-54000000D03*
D33*
X32895000Y-68365000D03*
X33855000Y-68365000D03*
D10*
X153550000Y-143960001D03*
X152530000Y-143960001D03*
D19*
X124837500Y-123000001D03*
X125857500Y-123000001D03*
D33*
X141892500Y-154169413D03*
X142852500Y-154169413D03*
D11*
X121920000Y-38062500D03*
X121920000Y-39937500D03*
D42*
X164350000Y-130700000D03*
X164350000Y-133000000D03*
D43*
X170650000Y-133000000D03*
D42*
X164350000Y-135300000D03*
D17*
X33135000Y-162917500D03*
D22*
X35675000Y-162917500D03*
X38215000Y-162917500D03*
X40755000Y-162917500D03*
X43295000Y-162917500D03*
X43295000Y-147677500D03*
X40755000Y-147677500D03*
X38215000Y-147677500D03*
X35675000Y-147677500D03*
X33135000Y-147677500D03*
D27*
X82420000Y-42437500D03*
X82420000Y-40562500D03*
D21*
X164000000Y-146000000D03*
X162125000Y-146000000D03*
D17*
X128000000Y-61670000D03*
D18*
X128000000Y-64210000D03*
X128000000Y-66750000D03*
X128000000Y-69290000D03*
X128000000Y-71830000D03*
X128000000Y-74370000D03*
X128000000Y-76910000D03*
X128000000Y-79450000D03*
X128000000Y-81990000D03*
X128000000Y-84530000D03*
X128000000Y-87070000D03*
X128000000Y-89610000D03*
X128000000Y-92150000D03*
X128000000Y-94690000D03*
X143240000Y-94690000D03*
X143240000Y-92150000D03*
X143240000Y-89610000D03*
X143240000Y-87070000D03*
X143240000Y-84530000D03*
X143240000Y-81990000D03*
X143240000Y-79450000D03*
X143240000Y-76910000D03*
X143240000Y-74370000D03*
X143240000Y-71830000D03*
X143240000Y-69290000D03*
X143240000Y-66750000D03*
X143240000Y-64210000D03*
X143240000Y-61670000D03*
D21*
X167915000Y-104500000D03*
X166040000Y-104500000D03*
D37*
X140297500Y-153925001D03*
X139027500Y-153925001D03*
X137757500Y-153925001D03*
X136487500Y-153925001D03*
X135217500Y-153925001D03*
X133947500Y-153925001D03*
X132677500Y-153925001D03*
X131407500Y-153925001D03*
X130137500Y-153925001D03*
X128867500Y-153925001D03*
X128867500Y-163225001D03*
X130137500Y-163225001D03*
X131407500Y-163225001D03*
X132677500Y-163225001D03*
X133947500Y-163225001D03*
X135217500Y-163225001D03*
X136487500Y-163225001D03*
X137757500Y-163225001D03*
X139027500Y-163225001D03*
X140297500Y-163225001D03*
D44*
X33088842Y-53460000D03*
X33088842Y-54730000D03*
X33088842Y-56000000D03*
X33088842Y-57270000D03*
X38338842Y-57270000D03*
X38338842Y-56000000D03*
X38338842Y-54730000D03*
X38338842Y-53460000D03*
D11*
X129920000Y-38062500D03*
X129920000Y-39937500D03*
D19*
X150365000Y-48000000D03*
X151385000Y-48000000D03*
D13*
X148640000Y-112100001D03*
X148640000Y-113370001D03*
X148640000Y-114640001D03*
X148640000Y-115910001D03*
X148640000Y-117180001D03*
X148640000Y-118450001D03*
X148640000Y-119720001D03*
X153590000Y-119720001D03*
X153590000Y-118450001D03*
X153590000Y-117180001D03*
X153590000Y-115910001D03*
X153590000Y-114640001D03*
X153590000Y-113370001D03*
X153590000Y-112100001D03*
D10*
X153550000Y-158000001D03*
X152530000Y-158000001D03*
D33*
X84235000Y-138420000D03*
X85195000Y-138420000D03*
D24*
X39875000Y-63375000D03*
X39875000Y-62355000D03*
D19*
X122980000Y-62950000D03*
X124000000Y-62950000D03*
X122980000Y-54990000D03*
X124000000Y-54990000D03*
D17*
X75095000Y-162917500D03*
D22*
X77635000Y-162917500D03*
X80175000Y-162917500D03*
X82715000Y-162917500D03*
X85255000Y-162917500D03*
X85255000Y-147677500D03*
X82715000Y-147677500D03*
X80175000Y-147677500D03*
X77635000Y-147677500D03*
X75095000Y-147677500D03*
D29*
X111040000Y-145960001D03*
X111040000Y-145000001D03*
D10*
X153560000Y-150000001D03*
X152540000Y-150000001D03*
D27*
X88500000Y-42437500D03*
X88500000Y-40562500D03*
D17*
X61185000Y-162920000D03*
D22*
X63725000Y-162920000D03*
X66265000Y-162920000D03*
X68805000Y-162920000D03*
X71345000Y-162920000D03*
X71345000Y-147680000D03*
X68805000Y-147680000D03*
X66265000Y-147680000D03*
X63725000Y-147680000D03*
X61185000Y-147680000D03*
D21*
X155385000Y-51000000D03*
X153510000Y-51000000D03*
X167852500Y-114500000D03*
X165977500Y-114500000D03*
D45*
X168450000Y-126500000D03*
X166550000Y-126500000D03*
D12*
X168500000Y-57000000D03*
X168500000Y-58020000D03*
D28*
X70865000Y-115060934D03*
X72135000Y-115060934D03*
X73405000Y-115060934D03*
X74675000Y-115060934D03*
X74675000Y-109810934D03*
X73405000Y-109810934D03*
X72135000Y-109810934D03*
X70865000Y-109810934D03*
D10*
X164060000Y-112000000D03*
X163040000Y-112000000D03*
D44*
X32750000Y-62960000D03*
X32750000Y-64230000D03*
X32750000Y-65500000D03*
X32750000Y-66770000D03*
X38000000Y-66770000D03*
X38000000Y-65500000D03*
X38000000Y-64230000D03*
X38000000Y-62960000D03*
D11*
X46500000Y-111625000D03*
X46500000Y-113500000D03*
D46*
X112615000Y-154862501D03*
X113265000Y-154862501D03*
X113915000Y-154862501D03*
X114565000Y-154862501D03*
X115215000Y-154862501D03*
X115865000Y-154862501D03*
X116515000Y-154862501D03*
X117165000Y-154862501D03*
X117815000Y-154862501D03*
X118465000Y-154862501D03*
X118465000Y-149137501D03*
X117815000Y-149137501D03*
X117165000Y-149137501D03*
X116515000Y-149137501D03*
X115865000Y-149137501D03*
X115215000Y-149137501D03*
X114565000Y-149137501D03*
X113915000Y-149137501D03*
X113265000Y-149137501D03*
X112615000Y-149137501D03*
D17*
X149040000Y-123600001D03*
D18*
X149040000Y-126140001D03*
X149040000Y-128680001D03*
X149040000Y-131220001D03*
X149040000Y-133760001D03*
X149040000Y-136300001D03*
X149040000Y-138840001D03*
X149040000Y-141380001D03*
X156660000Y-141380001D03*
X156660000Y-138840001D03*
X156660000Y-136300001D03*
X156660000Y-133760001D03*
X156660000Y-131220001D03*
X156660000Y-128680001D03*
X156660000Y-126140001D03*
X156660000Y-123600001D03*
D21*
X172437500Y-77500000D03*
X170562500Y-77500000D03*
D12*
X72000000Y-53980000D03*
X72000000Y-55000000D03*
D19*
X124977500Y-128640001D03*
X125997500Y-128640001D03*
D11*
X168500000Y-52062500D03*
X168500000Y-53937500D03*
D10*
X153550000Y-146000001D03*
X152530000Y-146000001D03*
D33*
X145560000Y-110500001D03*
X146520000Y-110500001D03*
D47*
X40000000Y-47000000D03*
D48*
X38850000Y-41500000D03*
D47*
X37700000Y-47000000D03*
D19*
X122980000Y-56980000D03*
X124000000Y-56980000D03*
X122980000Y-58970000D03*
X124000000Y-58970000D03*
M02*
